<?xml version="1.0" encoding="UTF-8" standalone="no"?>
<!-- Created with Inkscape (http://www.inkscape.org/) -->

<svg
   width="244.70758mm"
   height="237.30032mm"
   viewBox="0 0 244.70758 237.30032"
   version="1.1"
   id="svg1"
   xml:space="preserve"
   inkscape:version="1.3.1 (91b66b0783, 2023-11-16)"
   sodipodi:docname="logo.svg"
   xmlns:inkscape="http://www.inkscape.org/namespaces/inkscape"
   xmlns:sodipodi="http://sodipodi.sourceforge.net/DTD/sodipodi-0.dtd"
   xmlns:xlink="http://www.w3.org/1999/xlink"
   xmlns="http://www.w3.org/2000/svg"
   xmlns:svg="http://www.w3.org/2000/svg"><sodipodi:namedview
     id="namedview1"
     pagecolor="#ffffff"
     bordercolor="#000000"
     borderopacity="0.25"
     inkscape:showpageshadow="2"
     inkscape:pageopacity="0.0"
     inkscape:pagecheckerboard="false"
     inkscape:deskcolor="#d1d1d1"
     inkscape:document-units="mm"
     inkscape:zoom="0.71622834"
     inkscape:cx="12.565825"
     inkscape:cy="605.95201"
     inkscape:window-width="2729"
     inkscape:window-height="1250"
     inkscape:window-x="1647"
     inkscape:window-y="90"
     inkscape:window-maximized="0"
     inkscape:current-layer="layer1" /><defs
     id="defs1"><linearGradient
       id="linearGradient16"
       inkscape:collect="always"><stop
         style="stop-color:#ff5555;stop-opacity:1;"
         offset="0"
         id="stop16" /><stop
         style="stop-color:#ffd5d5;stop-opacity:1"
         offset="1"
         id="stop17" /></linearGradient><filter
       id="fx0"
       x="-21"
       y="-29.700001"
       width="252.00002"
       height="356.40002"
       filterUnits="userSpaceOnUse"
       primitiveUnits="userSpaceOnUse"><feComponentTransfer
         color-interpolation-filters="sRGB"
         id="feComponentTransfer1"><feFuncR
           type="discrete"
           tableValues="0 0"
           id="feFuncR1" /><feFuncG
           type="discrete"
           tableValues="0 0"
           id="feFuncG1" /><feFuncB
           type="discrete"
           tableValues="0 0"
           id="feFuncB1" /><feFuncA
           type="linear"
           slope="0.301961"
           intercept="0"
           id="feFuncA1" /></feComponentTransfer><feGaussianBlur
         stdDeviation="4.34946 4.34946"
         id="feGaussianBlur1" /></filter><linearGradient
       x1="1401.73"
       y1="345.39001"
       x2="1401.73"
       y2="1973.39"
       gradientUnits="userSpaceOnUse"
       spreadMethod="reflect"
       id="fill1"><stop
         offset="0"
         stop-color="#FFC000"
         id="stop1" /><stop
         offset="0.04"
         stop-color="#FFD966"
         id="stop2" /><stop
         offset="0.87"
         stop-color="#FFF2CC"
         id="stop3" /><stop
         offset="1"
         stop-color="#FFF2CC"
         id="stop4" /></linearGradient><linearGradient
       inkscape:collect="always"
       xlink:href="#linearGradient16"
       id="linearGradient17"
       x1="1995.6283"
       y1="1037.4167"
       x2="1717.7839"
       y2="1556.8042"
       gradientUnits="userSpaceOnUse" /></defs><g
     inkscape:label="Layer 1"
     inkscape:groupmode="layer"
     id="layer1"
     transform="translate(17.476482,-29.980443)"
     style="display:inline"><g
       style="overflow:hidden"
       id="g1"
       transform="matrix(0.26458333,0,0,0.26458333,-43.471794,-78.828129)"><g
         transform="translate(-995,-329)"
         id="g6"><g
           filter="url(#fx0)"
           transform="matrix(2,0,0,2,1640,1013)"
           id="g5"><g
             id="g4"><path
               d="M 32.1804,15.0954 H 173.808 c 1.316,0 2.485,0.3654 3.508,1.0962 1.023,0.7308 1.9,2.0096 2.631,3.8366 0.731,1.827 1.279,4.1656 1.644,7.0157 0.366,2.8501 0.548,6.4675 0.548,10.8522 0,4.0925 -0.182,7.5638 -0.548,10.4139 -0.365,2.85 -0.913,5.1521 -1.644,6.906 -0.731,1.7539 -1.608,3.0328 -2.631,3.8366 -1.023,0.8039 -2.192,1.2058 -3.508,1.2058 H 72.5203 v 69.2796 h 85.7217 c 1.316,0 2.522,0.402 3.618,1.206 1.096,0.803 2.01,2.046 2.74,3.727 0.731,1.68 1.279,3.946 1.645,6.796 0.365,2.85 0.548,6.321 0.548,10.414 0,4.238 -0.183,7.746 -0.548,10.523 -0.366,2.777 -0.914,5.006 -1.645,6.687 -0.73,1.681 -1.644,2.887 -2.74,3.617 -1.096,0.731 -2.302,1.097 -3.618,1.097 H 72.5203 v 80.022 H 174.685 c 1.316,0 2.522,0.402 3.618,1.205 1.096,0.804 2.009,2.083 2.74,3.837 0.731,1.754 1.279,4.056 1.644,6.906 0.366,2.85 0.549,6.395 0.549,10.633 0,4.239 -0.183,7.783 -0.549,10.633 -0.365,2.85 -0.913,5.152 -1.644,6.906 -0.731,1.754 -1.644,3.033 -2.74,3.837 -1.096,0.804 -2.302,1.206 -3.618,1.206 H 32.1804 c -4.8232,0 -8.8791,-1.425 -12.1677,-4.275 -3.2886,-2.851 -4.9329,-7.491 -4.9329,-13.922 V 33.2921 c 0,-6.431 1.6443,-11.0715 4.9329,-13.9216 3.2886,-2.8501 7.3445,-4.2751 12.1677,-4.2751 z"
               stroke="#5b9bd5"
               stroke-width="2"
               stroke-linejoin="round"
               stroke-miterlimit="10"
               fill="#ffffff"
               fill-rule="evenodd"
               id="path4" /></g></g><path
           d="m 1704.36,1027.68 h 283.26 c 2.63,0 4.97,0.73 7.01,2.19 2.05,1.46 3.8,4.02 5.26,7.68 1.47,3.65 2.56,8.33 3.29,14.03 0.73,5.7 1.1,12.93 1.1,21.7 0,8.19 -0.37,15.13 -1.1,20.83 -0.73,5.7 -1.82,10.3 -3.29,13.81 -1.46,3.51 -3.21,6.07 -5.26,7.68 -2.04,1.6 -4.38,2.41 -7.01,2.41 h -202.58 v 138.56 h 171.44 c 2.64,0 5.05,0.8 7.24,2.41 2.19,1.6 4.02,4.09 5.48,7.45 1.46,3.36 2.56,7.89 3.29,13.59 0.73,5.7 1.1,12.65 1.1,20.83 0,8.48 -0.37,15.49 -1.1,21.05 -0.73,5.55 -1.83,10.01 -3.29,13.37 -1.46,3.36 -3.29,5.78 -5.48,7.24 -2.19,1.46 -4.6,2.19 -7.24,2.19 h -171.44 v 160.04 h 204.33 c 2.63,0 5.04,0.81 7.24,2.41 2.19,1.61 4.01,4.17 5.48,7.68 1.46,3.51 2.55,8.11 3.29,13.81 0.73,5.7 1.09,12.79 1.09,21.27 0,8.47 -0.36,15.56 -1.09,21.26 -0.74,5.7 -1.83,10.31 -3.29,13.81 -1.47,3.51 -3.29,6.07 -5.48,7.68 -2.2,1.61 -4.61,2.41 -7.24,2.41 h -285.01 c -9.65,0 -17.76,-2.85 -24.33,-8.55 -6.58,-5.7 -9.87,-14.98 -9.87,-27.84 v -494.61 c 0,-12.86 3.29,-22.14 9.87,-27.84 6.57,-5.7 14.68,-8.55 24.33,-8.55 z"
           stroke="#5b9bd5"
           stroke-width="4"
           stroke-linejoin="round"
           stroke-miterlimit="10"
           fill="#ffffff"
           fill-rule="evenodd"
           id="path5"
           style="fill:url(#linearGradient17);fill-opacity:1" /><text
           fill="#000000"
           fill-opacity="0"
           font-family="Arial, Arial_MSFontService, sans-serif"
           font-size="567.389px"
           x="1670.16"
           y="1524.15"
           id="text5">E</text><path
           d="m 1403.2,880.565 c -26.06,0 -47.6,6.295 -64.61,18.884 -17,12.589 -30.48,31.473 -40.41,56.652 -9.94,25.179 -16.9,56.539 -20.88,94.089 -3.97,37.55 -5.96,81.28 -5.96,131.19 0,60.96 2.43,111.43 7.29,151.41 4.86,39.97 12.48,71.78 22.86,95.41 10.38,23.63 23.74,40.2 40.09,49.7 16.34,9.49 36,14.24 58.97,14.24 17.22,0 32.46,-2.76 45.72,-8.28 13.25,-5.52 24.84,-13.8 34.78,-24.85 9.94,-11.04 18.22,-24.96 24.85,-41.74 6.63,-16.79 12.04,-36.22 16.23,-58.31 4.2,-22.09 7.07,-47.04 8.62,-74.87 1.54,-27.83 2.32,-58.53 2.32,-92.1 0,-40.64 -1.11,-76.53 -3.32,-107.68 -2.21,-31.14 -5.63,-58.19 -10.27,-81.16 -4.64,-22.975 -10.38,-42.411 -17.22,-58.313 -6.85,-15.902 -15.13,-28.602 -24.85,-38.099 -9.72,-9.498 -20.76,-16.234 -33.13,-20.21 -12.37,-3.975 -26.06,-5.963 -41.08,-5.963 z m 7.29,-137.82 c 58.75,0 107.45,10.049 146.1,30.148 38.65,20.099 69.24,49.032 91.77,86.8 22.53,37.768 38.21,83.929 47.04,138.483 8.84,54.554 13.25,116.284 13.25,185.194 0,68.47 -5.52,130.31 -16.56,185.53 -11.04,55.22 -29.04,102.26 -54,141.13 -24.96,38.88 -57.43,68.69 -97.4,89.45 -39.98,20.76 -88.9,31.15 -146.77,31.15 -58.75,0 -107.34,-10.05 -145.77,-30.15 -38.43,-20.1 -68.91,-49.04 -91.44,-86.8 -22.53,-37.77 -38.32,-83.93 -47.37,-138.49 -9.06,-54.55 -13.59,-116.28 -13.59,-185.19 0,-68.03 5.63,-129.76 16.9,-185.2 11.26,-55.435 29.37,-102.59 54.33,-141.463 24.96,-38.872 57.43,-68.689 97.4,-89.45 39.98,-20.762 88.68,-31.142 146.11,-31.142 z"
           stroke="#ffc000"
           stroke-width="5"
           stroke-linejoin="round"
           stroke-miterlimit="10"
           fill="url(#fill1)"
           fill-rule="evenodd"
           id="path6"
           style="fill:url(#fill1)" /><text
           fill="#000000"
           fill-opacity="0"
           font-family="Arial, Arial_MSFontService, sans-serif"
           font-size="887.881px"
           x="1095.75"
           y="1519.64"
           id="text6">0</text></g></g></g></svg>
